# xmcd
#
# Track frame offsets: 
#        150
#        5382
#        23864
#        40589
#        53846
#        66530
#        94015
#        106145
#        124438
#        140880
#
# Disc length: 2233 seconds
#
# Revision: 0
# Processed by: cddbd v1.5.2PL0 Copyright (c) Steve Scherf et al.
# Submitted via: ExactAudioCopy v0.99pb4
#
DISCID=8908b70a
DTITLE=McFadden, Eric - Devil Moon
DYEAR=2003
DGENRE=Blues
TTITLE0=El Cuarto Rojo
TTITLE1=Devil Moon
TTITLE2=On The Inside
TTITLE3=Being For The Benefit Of Mr Kite
TTITLE4=Bitter Endings
TTITLE5=Don't Make Me Explain
TTITLE6=Sister Maggie, Brother Sam
TTITLE7=Stranger
TTITLE8=Nostalgia Song
TTITLE9=Rio De Lagrimas
EXTD=
EXTT0=
EXTT1=
EXTT2=
EXTT3=
EXTT4=
EXTT5=
EXTT6=
EXTT7=
EXTT8=
EXTT9=
PLAYORDER=
